<?xml version="1.0" encoding="utf-8"?>
<!-- Generator: Adobe Illustrator 21.0.2, SVG Export Plug-In . SVG Version: 6.00 Build 0)  -->
<svg version="1.1" id="Layer_1" xmlns="http://www.w3.org/2000/svg" xmlns:xlink="http://www.w3.org/1999/xlink" x="0px" y="0px"
	 viewBox="0 0 250 47" style="enable-background:new 0 0 250 47;" xml:space="preserve">
<style type="text/css">
	.st0{fill:#00AF87;}
	.st1{fill:#000A12;}
	.st2{fill:#F8C40F;}
	.st3{fill:#FFFFFF;}
	.st4{fill:#EF6945;}
	.st5{opacity:0.5;fill:#00AF87;enable-background:new    ;}
	.st6{enable-background:new    ;}
</style>
<g>
	<path class="st0" d="M179.2,3.8c0,1.3,1.1,2.4,2.4,2.4c1.3,0,2.4-1.1,2.4-2.4s-1.1-2.4-2.4-2.4C180.3,1.4,179.2,2.5,179.2,3.8"/>
	<path class="st1" d="M63.7,3.7L60,4.9v4.8h-4.1v3.2h4v10.4c0,4.9,1.7,6.9,5.8,6.9c1,0,2-0.1,3-0.4h0.2v-3.3l-0.3,0.1
		c-0.8,0.3-1.4,0.4-1.9,0.4c-1.9,0-2.7-1.1-2.7-4v-9.9h4.7V9.7H64V3.6L63.7,3.7z"/>
	<path class="st1" d="M76.4,13V9.7h-3.7v20.2h4.1v-10c0-4.2,1.8-6.6,5-6.6c0.5,0,0.9,0.1,1.5,0.2l0.3,0.1l0.1-4l-1.8-0.1
		C79.5,9.4,77.6,10.7,76.4,13"/>
	<path class="st1" d="M105.6,9.3c-2.8,0-5.2,1.3-6.7,3.8V9.7h-3.7v28.4h4.1v-11c1.5,2,3.6,3.1,6.2,3.1c5.2,0,8.5-4.2,8.5-10.8
		C114,13.4,110.6,9.3,105.6,9.3 M104.5,26.9c-3.2,0-5.3-2.8-5.3-7.2c0-4.3,2.1-7.1,5.4-7.1c3.2,0,5.1,2.6,5.1,7
		C109.7,24.1,107.7,26.9,104.5,26.9"/>
	<path class="st0" d="M125.9,9.3c-2.5,0-4.7,0.5-6.7,1.4l-0.1,0.1v3.5l0.3-0.2c1.9-1.1,3.7-1.6,5.4-1.6c3,0,4.7,1.7,4.7,4.7v0.2
		h-2.3c-6.7,0-10.4,2.4-10.4,6.9c0,3.6,2.7,6,6.5,6c2.8,0,5-1.1,6.5-3.2V30h3.7V17.7C133.5,12.1,131,9.3,125.9,9.3 M129.5,21.4
		c0,3.5-2.1,5.7-5.3,5.7c-2,0-3.4-1.3-3.4-3.2c0-2.4,2.3-3.8,6.6-3.8h2.1V21.4z"/>
	<path class="st0" d="M150.9,0.1v12.4c-1.5-2.1-3.6-3.2-6.3-3.2c-5,0-8.4,4.1-8.4,10.2c0,6.3,3.4,10.7,8.3,10.7
		c2.9,0,5.1-1.3,6.7-3.8v3.5h3.8V0.1H150.9z M145.6,26.9c-3.1,0-5.1-2.7-5.1-7.1s2-7.2,5-7.2c3.4,0,5.4,2.7,5.4,7.2
		C150.9,24.1,148.8,26.9,145.6,26.9"/>
	<polygon class="st0" points="173.3,9.7 167.5,21.4 162.1,9.7 157.5,9.7 167.4,29.9 177.5,9.7 	"/>
	<polygon class="st0" points="183.5,9.7 179.6,9.7 179.6,29.9 183.7,29.9 183.7,9.7 	"/>
	<path class="st0" d="M188.5,14.9c0,2.8,2,4.3,5.5,6.1c2.3,1.1,3.5,1.8,3.5,3.3c0,1.6-1.5,2.7-3.7,2.7c-1.6,0-3.4-0.5-5.1-1.3
		l-0.3-0.1l-0.1,3.6l0.1,0.1c1.7,0.7,3.5,1,5.3,1c5,0,8.2-2.4,8.2-6.1c0-3.1-2-4.6-5.6-6.3c-2.6-1.2-3.7-1.9-3.7-3.2
		c0-1.2,1.2-2,3.1-2c1.7,0,3.3,0.4,4.9,1.1l0.3,0.1l0.2-3.5h-0.2c-1.7-0.5-3.4-0.8-5-0.8C191.5,9.5,188.5,11.7,188.5,14.9"/>
	<path class="st0" d="M214.7,9.3c-6.1,0-10,4-10,10.6c0,6.5,3.8,10.6,10,10.6s10-4,10-10.6S220.8,9.3,214.7,9.3 M214.7,27
		c-3.4,0-5.7-2.9-5.7-7.3s2.3-7.3,5.7-7.3c3.5,0,5.7,2.9,5.7,7.3C220.4,24.2,218.1,27,214.7,27"/>
	<path class="st0" d="M232.2,13V9.7h-3.7v20.2h4.1v-10c0-4.2,1.8-6.6,5-6.6c0.5,0,0.9,0.1,1.5,0.2l0.3,0.1l0.1-4l-1.8-0.1
		C235.3,9.4,233.4,10.7,232.2,13"/>
	<polygon class="st1" points="91,9.7 87.1,9.7 87.1,29.9 91.2,29.9 91.2,9.7 	"/>
	<path class="st1" d="M86.7,3.8c0,1.3,1.1,2.4,2.4,2.4s2.4-1.1,2.4-2.4s-1.1-2.4-2.4-2.4C87.8,1.4,86.7,2.5,86.7,3.8"/>
	<path class="st2" d="M33.5,6c1.3-0.5,2.7-0.7,4-0.8c-3.6-1.6-7.7-2.4-12.2-2.4S16.6,3.6,13,5.2c6.5,0.1,11.9,5.3,12.3,11.7
		c0.1-1.5,0.5-2.9,1.1-4.3C27.8,9.5,30.3,7.1,33.5,6"/>
	<path class="st3" d="M37.8,13.6c-2.3,0-4.1,1.8-4.1,4.1s1.8,4.1,4.1,4.1s4.1-1.8,4.1-4.1C41.9,15.4,40.1,13.6,37.8,13.6 M37.8,19.9
		c-1.2,0-2.1-0.9-2.1-2.1s0.9-2.1,2.1-2.1c1.2,0,2.1,0.9,2.1,2.1C39.9,18.9,39,19.9,37.8,19.9"/>
	<path class="st3" d="M34.3,8.4c-2.5,0.9-4.5,2.8-5.7,5.2c-1.1,2.4-1.2,5.2-0.3,7.7l0,0c0.9,2.5,2.8,4.5,5.2,5.7
		c2.5,1.1,5.2,1.2,7.7,0.3c5.2-1.9,7.9-7.7,6-13C45.4,9.1,39.6,6.4,34.3,8.4 M37.8,23.9c-3.4,0-6.2-2.8-6.2-6.2s2.8-6.2,6.2-6.2
		s6.2,2.8,6.2,6.2S41.3,23.9,37.8,23.9"/>
	<path class="st3" d="M12.5,13.6c-2.3,0-4.1,1.8-4.1,4.1s1.8,4.1,4.1,4.1s4.1-1.8,4.1-4.1S14.7,13.6,12.5,13.6 M12.5,19.9
		c-1.2,0-2.1-0.9-2.1-2.1s0.9-2.1,2.1-2.1s2.1,0.9,2.1,2.1C14.6,18.9,13.6,19.9,12.5,19.9"/>
	<path class="st3" d="M12.6,7.7C7,7.7,2.5,12.2,2.5,17.9S7,28,12.6,28s10.1-4.5,10.1-10.1S18.2,7.7,12.6,7.7 M12.5,23.9
		c-3.4,0-6.2-2.8-6.2-6.2s2.8-6.2,6.2-6.2s6.2,2.8,6.2,6.2S15.9,23.9,12.5,23.9"/>
	<path class="st4" d="M12.5,15.6c-1.2,0-2.1,0.9-2.1,2.1s0.9,2.1,2.1,2.1s2.1-0.9,2.1-2.1S13.6,15.6,12.5,15.6"/>
	<path class="st0" d="M37.8,15.6c-1.2,0-2.1,0.9-2.1,2.1s0.9,2.1,2.1,2.1c1.2,0,2.1-0.9,2.1-2.1C39.9,16.5,39,15.6,37.8,15.6"/>
	<path class="st1" d="M48,10.3c0.6-2.5,2.5-5.1,2.5-5.1h-8.4c-4.7-3.1-10.5-4.7-16.8-4.7C18.7,0.5,12.7,2.2,8,5.2L0,5.3
		c0,0,1.9,2.5,2.5,5C0.9,12.4,0,15,0,17.9c0,7,5.7,12.6,12.6,12.6c4,0,7.5-1.9,9.9-4.7l2.7,4l2.7-4.1c1.2,1.6,2.8,2.8,4.6,3.7
		c3.1,1.4,6.5,1.6,9.7,0.4c6.5-2.4,9.9-9.7,7.5-16.2C49.3,12.3,48.7,11.2,48,10.3 M33.6,27c-2.4-1.1-4.3-3.1-5.2-5.7l0,0
		c-0.9-2.5-0.8-5.3,0.3-7.7c1.1-2.4,3.1-4.3,5.7-5.2c5.2-1.9,11,0.8,13,6c1.9,5.2-0.8,11-6,13C38.8,28.2,36.1,28.1,33.6,27
		 M12.6,27.9C7,27.9,2.5,23.4,2.5,17.8S7,7.7,12.6,7.7s10.1,4.5,10.1,10.1C22.7,23.3,18.2,27.9,12.6,27.9 M33.5,6
		c-3.2,1.2-5.7,3.5-7.1,6.6c-0.6,1.4-1,2.8-1.1,4.3C24.8,10.4,19.5,5.3,13,5.2c3.6-1.5,7.8-2.4,12.3-2.4s8.6,0.8,12.2,2.4
		C36.1,5.2,34.8,5.5,33.5,6"/>
	<path class="st1" d="M12.5,11.4c-3.4,0-6.2,2.8-6.2,6.2s2.8,6.2,6.2,6.2s6.2-2.8,6.2-6.2S15.9,11.4,12.5,11.4 M12.5,21.9
		c-2.3,0-4.1-1.8-4.1-4.1s1.8-4.1,4.1-4.1s4.1,1.8,4.1,4.1C16.6,19.9,14.7,21.9,12.5,21.9"/>
	<path class="st1" d="M37.8,11.4c-3.4,0-6.2,2.8-6.2,6.2s2.8,6.2,6.2,6.2s6.2-2.7,6.2-6.2S41.3,11.4,37.8,11.4 M37.8,21.9
		c-2.3,0-4.1-1.8-4.1-4.1s1.8-4.1,4.1-4.1s4.1,1.8,4.1,4.1C41.9,19.9,40.1,21.9,37.8,21.9"/>
	<path class="st5" d="M249,7.3c0.7,0.7,1,1.6,1,2.5c0,1-0.4,1.9-1.1,2.5c-0.7,0.7-1.6,1-2.5,1c-1,0-1.9-0.4-2.5-1.1
		c-0.7-0.7-1-1.6-1-2.5c0-1,0.4-1.9,1.1-2.6c0.7-0.7,1.5-1,2.5-1C247.4,6.3,248.3,6.6,249,7.3z M244.4,7.7c-0.6,0.6-0.9,1.3-0.9,2.1
		s0.3,1.5,0.8,2c0.6,0.6,1.3,0.9,2.1,0.9s1.5-0.3,2.1-0.8s0.9-1.3,0.9-2.1s-0.3-1.5-0.8-2.1c-0.6-0.6-1.3-0.9-2.1-0.9
		C245.6,6.9,244.9,7.2,244.4,7.7z M246.5,7.8c1.1,0,1.7,0.4,1.7,1.1c0,0.5-0.3,0.9-0.8,1.1l0.9,1.7H247l-0.7-1.6H246v1.6h-1.1V7.8
		H246.5z M246,9.5h0.4c0.5,0,0.7-0.2,0.7-0.5c0-0.4-0.2-0.5-0.8-0.5H246V9.5z"/>
</g>
<g class="st6">
	<path class="st1" d="M196.8,35.7h1.8v10.6h-1.8V35.7z"/>
	<path class="st1" d="M201.3,35.7h1.6l6.1,8.1v-8.1h1.6v10.6h-1.6l-6.1-8.1v8.1h-1.6V35.7z"/>
	<path class="st1" d="M213.4,35.7h4c1.2,0,2.2,0.2,3,0.6c0.9,0.4,1.5,1,2,1.8c0.5,0.8,0.7,1.8,0.7,2.9c0,1.7-0.5,3-1.6,3.9
		c-1,0.9-2.5,1.4-4.4,1.4h-3.8V35.7z M215.1,44.9h2c2.8,0,4.1-1.3,4.1-3.9c0-2.6-1.4-3.9-4.1-3.9h-2V44.9z"/>
	<path class="st1" d="M225.2,35.7h1.8v10.6h-1.8V35.7z"/>
	<path class="st1" d="M232.9,35.7h1.9l4.3,10.6h-1.9l-1.1-3h-4.5l-1.1,3h-1.8L232.9,35.7z M235.6,42l-1.8-4.6l-1.7,4.6H235.6z"/>
</g>
</svg>
